<svg width="140" height="29" viewBox="0 0 140 29" fill="none" xmlns="http://www.w3.org/2000/svg">
<path d="M5.27344 28H0V0.65625H18.7109V4.34766H5.27344V12.2383H17.6562V15.6953H5.27344V28Z" fill="white"/>
<path d="M36.1523 28.4492C33.4961 28.4492 31.3151 28.1172 29.6094 27.4531C27.9167 26.776 26.6536 25.7344 25.8203 24.3281C24.987 22.9089 24.5703 21.0859 24.5703 18.8594V0.65625H29.8438V18.4297C29.8438 20.6562 30.3451 22.2708 31.3477 23.2734C32.3633 24.263 33.9648 24.7578 36.1523 24.7578C38.3268 24.7578 39.9089 24.263 40.8984 23.2734C41.901 22.2708 42.4023 20.6562 42.4023 18.4297V0.65625H47.6758V18.8594C47.6758 21.0859 47.2591 22.9089 46.4258 24.3281C45.6055 25.7344 44.349 26.776 42.6562 27.4531C40.9635 28.1172 38.7956 28.4492 36.1523 28.4492Z" fill="white"/>
<path d="M55.2734 28V0.65625H61.0742L69.7461 14.5234C70.3841 15.5391 71.0482 16.7174 71.7383 18.0586C72.4284 19.3997 73.0078 20.6367 73.4766 21.7695L74.2773 21.5742C74.043 20.3372 73.8542 18.8854 73.7109 17.2188C73.5677 15.5391 73.4961 13.9701 73.4961 12.5117V0.65625H78.3984V28H72.6953L64.1211 14.3672C63.4831 13.3125 62.7995 12.082 62.0703 10.6758C61.3542 9.26953 60.7357 7.94141 60.2148 6.69141L59.4141 6.88672C59.6354 8.09766 59.8177 9.55599 59.9609 11.2617C60.1042 12.9674 60.1758 14.5625 60.1758 16.0469V28H55.2734Z" fill="white"/>
<path d="M86.1719 28V0.65625H91.9727L100.645 14.5234C101.283 15.5391 101.947 16.7174 102.637 18.0586C103.327 19.3997 103.906 20.6367 104.375 21.7695L105.176 21.5742C104.941 20.3372 104.753 18.8854 104.609 17.2188C104.466 15.5391 104.395 13.9701 104.395 12.5117V0.65625H109.297V28H103.594L95.0195 14.3672C94.3815 13.3125 93.6979 12.082 92.9688 10.6758C92.2526 9.26953 91.6341 7.94141 91.1133 6.69141L90.3125 6.88672C90.5339 8.09766 90.7161 9.55599 90.8594 11.2617C91.0026 12.9674 91.0742 14.5625 91.0742 16.0469V28H86.1719Z" fill="white"/>
<path d="M124.355 28V17.9414L114.922 0.65625H120.527L124.551 8.23438C125.02 9.15885 125.423 10.0378 125.762 10.8711C126.113 11.6914 126.452 12.6094 126.777 13.625H127.441C127.754 12.5964 128.079 11.6719 128.418 10.8516C128.757 10.0182 129.16 9.13932 129.629 8.21484L133.613 0.65625H139.043L129.609 17.9414V28H124.355Z" fill="white"/>
</svg>
