<svg width="52" height="15" viewBox="0 0 52 15" fill="none" xmlns="http://www.w3.org/2000/svg">
<path d="M5.38281 14.2246C3.67057 14.2246 2.37826 13.8014 1.50586 12.9551C0.639974 12.1087 0.197266 10.8034 0.177734 9.03906L2.80469 8.62891C2.81771 9.94401 3.03581 10.9076 3.45898 11.5195C3.88216 12.125 4.52669 12.4277 5.39258 12.4277C6.16732 12.4277 6.75651 12.2031 7.16016 11.7539C7.5638 11.3047 7.76562 10.6374 7.76562 9.75195V0.328125H10.3828V9.94727C10.3828 11.3535 9.95964 12.418 9.11328 13.1406C8.26693 13.8633 7.02344 14.2246 5.38281 14.2246Z" fill="white"/>
<path d="M19.084 14.2246C17.3262 14.2246 15.9622 13.8145 14.9922 12.9941C14.0221 12.1738 13.5371 10.9596 13.5371 9.35156V8.38477C13.5371 6.78971 14.0221 5.58203 14.9922 4.76172C15.9622 3.9349 17.3262 3.52148 19.084 3.52148C20.8418 3.52148 22.2025 3.93164 23.166 4.75195C24.1361 5.57227 24.6211 6.7832 24.6211 8.38477V9.35156C24.6211 10.9596 24.1361 12.1738 23.166 12.9941C22.2025 13.8145 20.8418 14.2246 19.084 14.2246ZM19.084 12.5938C20.0085 12.5938 20.7214 12.3333 21.2227 11.8125C21.724 11.2917 21.9746 10.4941 21.9746 9.41992V8.32617C21.9746 7.25195 21.724 6.45443 21.2227 5.93359C20.7214 5.41276 20.0085 5.15234 19.084 5.15234C18.1595 5.15234 17.4466 5.41276 16.9453 5.93359C16.444 6.45443 16.1934 7.25195 16.1934 8.32617V9.41992C16.1934 10.4941 16.444 11.2917 16.9453 11.8125C17.4466 12.3333 18.1595 12.5938 19.084 12.5938Z" fill="white"/>
<path d="M27.6777 14V0.328125H30.2656V3.60938C30.2656 4.05859 30.2233 4.48503 30.1387 4.88867C30.0605 5.29232 29.9206 5.74805 29.7188 6.25586L30.0801 6.40234C30.5618 5.41927 31.138 4.70312 31.8086 4.25391C32.4857 3.79818 33.3483 3.57031 34.3965 3.57031C35.5684 3.57031 36.4603 3.84375 37.0723 4.39062C37.6908 4.9375 38 5.73828 38 6.79297V14H35.4121V7.38867C35.4121 6.70508 35.2331 6.1875 34.875 5.83594C34.5234 5.48438 33.9928 5.30859 33.2832 5.30859C32.6582 5.30859 32.1178 5.46484 31.6621 5.77734C31.2129 6.08333 30.8678 6.52279 30.627 7.0957C30.3861 7.66211 30.2656 8.33268 30.2656 9.10742V14H27.6777Z" fill="white"/>
<path d="M41.4082 14V3.74609H44.0059C44.0059 4.11719 43.9635 4.49154 43.8789 4.86914C43.8008 5.24674 43.6576 5.70898 43.4492 6.25586L43.8008 6.40234C44.2891 5.41276 44.8685 4.69336 45.5391 4.24414C46.2161 3.79492 47.0788 3.57031 48.127 3.57031C49.2988 3.57031 50.1908 3.84375 50.8027 4.39062C51.4212 4.9375 51.7305 5.73828 51.7305 6.79297V14H49.1426V7.38867C49.1426 6.70508 48.9635 6.1875 48.6055 5.83594C48.2539 5.48438 47.7233 5.30859 47.0137 5.30859C46.3887 5.30859 45.8483 5.46484 45.3926 5.77734C44.9434 6.08333 44.5983 6.52279 44.3574 7.0957C44.1165 7.66211 43.9961 8.33268 43.9961 9.10742V14H41.4082Z" fill="white"/>
</svg>
