<svg width="24" height="18" viewBox="0 0 24 18" fill="none" xmlns="http://www.w3.org/2000/svg">
<path d="M13.2688 0.668776C13.5688 0.368822 13.9757 0.200317 14.4 0.200317C14.8243 0.200317 15.2311 0.368822 15.5312 0.668776L22.7312 7.86878C23.0311 8.16882 23.1996 8.57571 23.1996 8.99998C23.1996 9.42424 23.0311 9.83113 22.7312 10.1312L15.5312 17.3312C15.2294 17.6226 14.8253 17.7839 14.4057 17.7803C13.9862 17.7766 13.5849 17.6083 13.2883 17.3117C12.9916 17.015 12.8234 16.6137 12.8197 16.1942C12.8161 15.7747 12.9773 15.3705 13.2688 15.0688L17.6 10.6H2.39999C1.97564 10.6 1.56868 10.4314 1.26862 10.1313C0.968559 9.83129 0.799988 9.42432 0.799988 8.99998C0.799988 8.57563 0.968559 8.16866 1.26862 7.86861C1.56868 7.56855 1.97564 7.39998 2.39999 7.39998H17.6L13.2688 2.93118C12.9688 2.63113 12.8003 2.22424 12.8003 1.79998C12.8003 1.37571 12.9688 0.96882 13.2688 0.668776Z" fill="white"/>
</svg>
