<svg width="24" height="18" viewBox="0 0 24 18" fill="none" xmlns="http://www.w3.org/2000/svg">
<path d="M10.7312 0.668776C10.4312 0.368822 10.0243 0.200317 9.60001 0.200317C9.17575 0.200317 8.76886 0.368822 8.46881 0.668776L1.26881 7.86878C0.968859 8.16882 0.800354 8.57571 0.800354 8.99998C0.800354 9.42424 0.968859 9.83113 1.26881 10.1312L8.46881 17.3312C8.77058 17.6226 9.17474 17.7839 9.59425 17.7803C10.0138 17.7766 10.4151 17.6083 10.7117 17.3117C11.0084 17.015 11.1766 16.6137 11.1803 16.1942C11.1839 15.7747 11.0227 15.3705 10.7312 15.0688L6.40001 10.6H21.6C22.0244 10.6 22.4313 10.4314 22.7314 10.1313C23.0314 9.83129 23.2 9.42432 23.2 8.99998C23.2 8.57563 23.0314 8.16866 22.7314 7.86861C22.4313 7.56855 22.0244 7.39998 21.6 7.39998H6.40001L10.7312 2.93118C11.0312 2.63113 11.1997 2.22424 11.1997 1.79998C11.1997 1.37571 11.0312 0.96882 10.7312 0.668776Z" fill="white"/>
</svg>
